<svg width="70" height="70" viewBox="0 0 70 70" fill="none" xmlns="http://www.w3.org/2000/svg">
<path fill-rule="evenodd" clip-rule="evenodd" d="M35 0C15.6705 0 0 15.6705 0 35C0 54.3295 15.6705 70 35 70C54.3295 70 70 54.3295 70 35C70 15.6705 54.3295 0 35 0ZM33.4091 15.9091C32.5652 15.9091 31.7559 16.2443 31.1592 16.841C30.5625 17.4377 30.2273 18.247 30.2273 19.0909C30.2273 19.9348 30.5625 20.7441 31.1592 21.3408C31.7559 21.9375 32.5652 22.2727 33.4091 22.2727H35C35.8439 22.2727 36.6532 21.9375 37.2499 21.3408C37.8466 20.7441 38.1818 19.9348 38.1818 19.0909C38.1818 18.247 37.8466 17.4377 37.2499 16.841C36.6532 16.2443 35.8439 15.9091 35 15.9091H33.4091ZM28.6364 28.6364C27.7925 28.6364 26.9832 28.9716 26.3865 29.5683C25.7898 30.165 25.4545 30.9743 25.4545 31.8182C25.4545 32.6621 25.7898 33.4714 26.3865 34.0681C26.9832 34.6648 27.7925 35 28.6364 35H31.8182V44.5455H28.6364C27.7925 44.5455 26.9832 44.8807 26.3865 45.4774C25.7898 46.0741 25.4545 46.8834 25.4545 47.7273C25.4545 48.5711 25.7898 49.3805 26.3865 49.9772C26.9832 50.5739 27.7925 50.9091 28.6364 50.9091H41.3636C42.2075 50.9091 43.0168 50.5739 43.6135 49.9772C44.2102 49.3805 44.5455 48.5711 44.5455 47.7273C44.5455 46.8834 44.2102 46.0741 43.6135 45.4774C43.0168 44.8807 42.2075 44.5455 41.3636 44.5455H38.1818V31.8182C38.1818 30.9743 37.8466 30.165 37.2499 29.5683C36.6532 28.9716 35.8439 28.6364 35 28.6364H28.6364Z" fill="#FF6464"/>
</svg>
