<svg width="72" height="68" viewBox="0 0 72 68" fill="none" xmlns="http://www.w3.org/2000/svg">
<path fill-rule="evenodd" clip-rule="evenodd" d="M36 0C16.3943 0 0.5 15.2033 0.5 33.9565C0.5 52.7098 16.3943 67.913 36 67.913C55.6057 67.913 71.5 52.7098 71.5 33.9565C71.5 15.2033 55.6057 0 36 0ZM51.3876 28.2148C51.671 27.905 51.8867 27.5441 52.0221 27.1534C52.1575 26.7627 52.2098 26.35 52.176 25.9396C52.1422 25.5293 52.0229 25.1296 51.8252 24.764C51.6275 24.3984 51.3553 24.0743 51.0247 23.8107C50.6941 23.5472 50.3118 23.3496 49.9002 23.2295C49.4886 23.1095 49.056 23.0693 48.6279 23.1115C48.1999 23.1537 47.785 23.2773 47.4076 23.4752C47.0302 23.673 46.698 23.941 46.4305 24.2635L32.5533 40.1891L25.3726 33.3175C24.7639 32.7552 23.9487 32.4441 23.1025 32.4511C22.2563 32.4581 21.4469 32.7828 20.8485 33.3551C20.2502 33.9275 19.9108 34.7017 19.9034 35.5111C19.8961 36.3205 20.2214 37.1003 20.8092 37.6825L30.491 46.9433C30.8081 47.2465 31.1878 47.4831 31.6058 47.6381C32.0238 47.7931 32.471 47.8631 32.9188 47.8437C33.3667 47.8242 33.8054 47.7157 34.207 47.5251C34.6085 47.3345 34.9642 47.0659 35.2513 46.7365L51.3876 28.2148Z" fill="#89C58B"/>
</svg>
